<?xml version="1.0" standalone="no"?>
<!DOCTYPE svg PUBLIC "-//W3C//DTD SVG 20010904//EN"
 "http://www.w3.org/TR/2001/REC-SVG-20010904/DTD/svg10.dtd">
<svg version="1.0" xmlns="http://www.w3.org/2000/svg"
 width="300.000000pt" height="300.000000pt" viewBox="0 0 300.000000 300.000000"
 preserveAspectRatio="xMidYMid meet">
<metadata>
Created by potrace 1.14, written by Peter Selinger 2001-2017
</metadata>
<g transform="translate(0.000000,300.000000) scale(0.100000,-0.100000)"
fill="#000000" stroke="none">
<path d="M997 2633 c-22 -21 17 -58 73 -70 24 -4 30 -2 30 11 0 39 -79 84
-103 59z"/>
<path d="M975 2558 c-18 -52 -31 -171 -31 -270 1 -65 -3 -118 -8 -118 -5 0 -3
-7 4 -15 9 -11 9 -15 1 -15 -7 0 -9 -5 -5 -12 4 -7 3 -8 -5 -4 -6 4 -8 12 -5
18 4 6 -7 0 -25 -13 -23 -17 -48 -24 -98 -27 -40 -3 -63 -1 -60 5 3 5 -9 9
-28 9 -18 -1 -31 -4 -28 -8 8 -14 -10 -8 -56 19 -75 43 -77 52 -17 87 52 30
64 33 45 9 -12 -14 -11 -14 13 1 15 10 25 22 23 27 -8 13 54 41 90 41 34 0
119 -38 111 -50 -2 -4 4 -8 14 -8 26 0 17 10 -36 41 -69 40 -112 36 -211 -20
-131 -74 -132 -84 -13 -151 l74 -42 -3 -53 c-1 -30 -6 -57 -9 -61 -4 -4 -27 3
-52 16 -25 12 -58 26 -75 30 -22 5 -15 -2 30 -30 154 -95 241 -118 276 -72 11
14 18 17 23 9 10 -15 97 -13 119 3 23 18 22 43 -3 58 -27 17 -25 24 7 23 18 0
29 6 31 18 2 10 -3 17 -11 17 -17 0 -27 30 -27 80 1 30 2 33 13 19 7 -9 22
-19 35 -23 12 -4 22 -12 22 -17 0 -6 11 -21 24 -34 14 -13 26 -32 28 -41 2 -9
13 -23 26 -32 22 -14 22 -14 22 36 0 32 5 54 15 62 14 11 13 14 -3 26 -10 7
-34 15 -54 19 -30 6 -37 4 -41 -12 -5 -17 -5 -17 -6 1 -1 15 -6 17 -28 12 -16
-4 -23 -3 -16 1 8 6 9 14 3 23 -23 37 -4 380 21 380 5 0 9 7 9 15 0 11 -11 15
-41 15 -22 0 -49 5 -60 10 -14 8 -20 8 -24 -2z m-55 -442 c0 -2 -7 -7 -16 -10
-8 -3 -12 -2 -9 4 6 10 25 14 25 6z m-40 -24 c0 -2 -19 -12 -43 -22 -46 -20
-91 -16 -130 12 -14 11 -1 13 78 13 52 0 95 -1 95 -3z"/>
<path d="M1468 2553 c6 -2 18 -2 25 0 6 3 1 5 -13 5 -14 0 -19 -2 -12 -5z"/>
<path d="M1598 2553 c7 -3 16 -2 19 1 4 3 -2 6 -13 5 -11 0 -14 -3 -6 -6z"/>
<path d="M1125 2524 c-26 -19 -12 -42 38 -59 34 -12 37 -11 37 6 0 12 -5 16
-15 13 -14 -6 -20 10 -16 44 2 16 -19 15 -44 -4z"/>
<path d="M1264 2525 c-10 -8 -14 -14 -9 -14 6 0 19 6 29 14 11 8 15 15 10 15
-6 0 -19 -7 -30 -15z"/>
<path d="M1408 2523 c6 -2 18 -2 25 0 6 3 1 5 -13 5 -14 0 -19 -2 -12 -5z"/>
<path d="M1541 2521 c-1 -7 -7 -11 -16 -7 -22 8 -45 -4 -45 -24 0 -22 19 -30
70 -30 41 0 66 20 56 46 -4 11 -14 15 -31 12 -13 -3 -26 0 -29 6 -3 6 -5 5 -5
-3z"/>
<path d="M1658 2523 c6 -2 18 -2 25 0 6 3 1 5 -13 5 -14 0 -19 -2 -12 -5z"/>
<path d="M1657 2449 c7 -7 15 -10 18 -7 3 3 -2 9 -12 12 -14 6 -15 5 -6 -5z"/>
<path d="M1468 2413 c6 -2 18 -2 25 0 6 3 1 5 -13 5 -14 0 -19 -2 -12 -5z"/>
<path d="M1598 2413 c6 -2 18 -2 25 0 6 3 1 5 -13 5 -14 0 -19 -2 -12 -5z"/>
<path d="M1720 2344 c-41 -23 -87 -58 -102 -76 -27 -31 -28 -36 -28 -150 0
-103 2 -118 18 -127 20 -11 22 -10 134 53 99 55 112 78 116 203 6 159 -11 171
-138 97z m-84 -218 c0 -14 -3 -23 -7 -20 -6 3 -6 22 0 42 3 10 7 -2 7 -22z"/>
<path d="M1330 2321 c0 -5 5 -13 10 -16 6 -3 10 -2 10 4 0 5 -4 13 -10 16 -5
3 -10 2 -10 -4z"/>
<path d="M1270 2288 c0 -9 5 -20 10 -23 13 -8 13 5 0 25 -8 13 -10 13 -10 -2z"/>
<path d="M1397 2281 c3 -12 9 -21 14 -21 14 0 11 16 -5 29 -12 10 -13 8 -9 -8z"/>
<path d="M845 2250 c27 -12 43 -12 25 0 -8 5 -22 9 -30 9 -10 0 -8 -3 5 -9z"/>
<path d="M2012 2219 c-34 -17 -62 -35 -62 -40 0 -6 -4 -7 -10 -4 -5 3 -10 1
-10 -5 0 -6 -4 -8 -10 -5 -5 3 -10 2 -10 -3 0 -5 -11 -15 -25 -22 -27 -14 -56
-53 -60 -79 -1 -9 -11 -16 -21 -17 -11 -1 -56 -22 -99 -48 -139 -81 -176 -81
-317 0 -42 24 -80 44 -83 44 -3 0 -5 -8 -5 -18 0 -20 -24 -45 -53 -55 -21 -8
-37 -46 -37 -89 0 -26 -2 -29 -15 -18 -12 10 -24 10 -54 1 -73 -21 -56 -81 23
-81 41 0 43 -1 38 -25 -2 -15 0 -25 7 -25 19 0 12 -20 -11 -31 l-23 -10 23 5
c12 2 22 0 22 -5 0 -5 -10 -9 -22 -9 -13 0 -36 -7 -52 -15 -15 -8 -33 -12 -39
-8 -5 3 -7 2 -4 -4 3 -5 -27 -29 -68 -52 -88 -51 -99 -63 -91 -96 5 -20 3 -25
-14 -25 -13 0 -20 7 -20 20 0 23 -4 24 -31 10 -10 -6 -51 -12 -91 -15 -71 -4
-72 -4 -157 45 l-86 50 41 -38 c38 -34 40 -40 28 -57 -8 -10 -14 -28 -14 -39
0 -16 2 -18 9 -7 6 9 11 10 15 2 4 -6 12 -8 18 -5 7 4 8 2 4 -5 -4 -6 -12 -8
-18 -5 -7 5 -9 1 -5 -9 4 -10 2 -16 -6 -14 -15 3 -37 30 -31 39 2 4 -1 10 -7
14 -7 4 -9 3 -6 -3 4 -6 -2 -13 -13 -16 -17 -4 -19 -9 -10 -32 6 -15 6 -33 2
-41 -7 -12 -11 -10 -20 11 -11 24 -31 32 -45 19 -11 -11 15 -53 29 -47 8 3 14
0 14 -6 0 -6 -9 -11 -19 -11 -24 0 -37 -18 -23 -32 6 -6 6 -24 0 -51 -11 -48
-4 -180 11 -217 9 -20 9 -18 4 15 -20 109 0 228 45 279 22 25 90 56 123 56 88
1 224 -86 307 -196 92 -121 141 -243 149 -370 19 -281 -209 -347 -428 -124
-37 37 -79 88 -94 114 -33 56 -45 62 -14 7 35 -63 115 -156 172 -200 117 -90
217 -105 324 -50 151 78 204 148 209 274 3 87 -10 159 -43 243 -19 47 -23 69
-16 81 12 19 66 56 150 102 l62 33 67 -34 c75 -40 99 -68 96 -116 -2 -19 2
-34 8 -34 6 0 6 -7 -2 -20 -21 -32 -1 -35 54 -5 129 67 192 127 166 153 -7 7
-19 12 -27 12 -14 0 -14 1 -1 10 19 12 43 13 35 1 -3 -5 -1 -12 5 -16 6 -3 10
4 10 17 1 20 2 21 11 6 10 -19 43 -23 98 -12 l32 7 -21 19 c-18 17 -20 31 -20
136 0 156 12 177 135 249 91 53 121 61 156 43 26 -14 25 -1 -5 58 -28 56 -66
95 -66 69 0 -10 -4 -17 -10 -17 -5 0 -10 20 -10 44 0 43 -1 44 -27 40 -24 -4
-25 -3 -12 12 10 12 5 11 -21 -5 -19 -11 -35 -25 -35 -29 0 -5 -7 -16 -16 -25
-12 -12 -19 -13 -28 -4 -8 8 -14 8 -23 -2 -11 -10 -9 -11 7 -6 20 7 20 6 1 -9
-20 -16 -41 -22 -33 -8 3 4 -16 5 -43 4 l-47 -4 -6 69 c-3 37 -4 69 -2 71 2 2
16 -4 32 -13 l28 -17 -25 19 c-14 10 -38 31 -53 47 l-28 30 28 15 c15 8 44 18
63 22 32 6 32 7 7 8 -15 0 -42 -6 -58 -15 -52 -26 -41 -10 19 30 52 34 62 37
112 34 82 -6 144 -41 235 -132 135 -136 207 -292 208 -451 1 -126 -41 -199
-132 -230 -25 -8 -57 -24 -71 -35 l-25 -20 33 0 c40 0 138 44 231 104 56 36
76 56 98 98 25 48 28 63 28 153 0 78 -5 115 -24 170 -66 202 -197 360 -355
430 -78 35 -137 33 -214 -6z m98 -319 c0 -5 -10 -10 -22 -10 -19 0 -20 2 -8
10 19 13 30 13 30 0z m-163 -76 c-3 -3 -12 -4 -19 -1 -8 3 -5 6 6 6 11 1 17
-2 13 -5z m-193 -30 c8 -21 -18 -80 -41 -92 -28 -16 -47 1 -39 33 15 60 65 97
80 59z m-729 -240 c-16 -13 -29 -29 -27 -35 2 -7 -4 -9 -12 -6 -11 4 -13 1 -9
-11 5 -16 5 -16 -12 -1 -16 16 -16 18 4 38 12 12 26 19 31 16 6 -4 10 -1 10 5
0 6 4 9 9 5 5 -3 12 -1 16 5 3 5 9 10 13 10 4 -1 -6 -12 -23 -26z m-353 -60
c29 -15 30 -18 15 -29 -30 -22 -85 14 -60 38 9 9 10 9 45 -9z m979 -108 c-9
-11 -8 -15 4 -20 9 -3 14 -2 11 2 -2 4 -1 14 3 20 5 8 8 -2 9 -24 1 -21 9 -45
18 -53 15 -15 15 -14 4 5 -15 25 -6 59 12 47 22 -13 42 -9 71 14 33 27 40 28
57 8 8 -9 10 -28 5 -54 -5 -31 -13 -42 -36 -51 -16 -7 -35 -10 -44 -6 -13 4
-21 39 -16 69 2 11 -17 8 -25 -4 -3 -6 -2 -14 4 -18 6 -4 9 -15 8 -26 -2 -11
3 -32 10 -46 7 -15 10 -30 6 -34 -4 -5 -1 -5 6 -1 7 4 10 16 7 26 -5 15 -2 18
15 15 54 -10 60 -15 48 -35 -9 -14 -16 -16 -25 -9 -7 6 -17 8 -23 4 -14 -9 -2
-27 13 -19 7 4 8 3 4 -2 -5 -5 -12 -9 -16 -9 -4 0 -15 -8 -25 -18 -18 -18 -76
-51 -76 -43 0 2 -2 11 -5 19 -5 10 2 13 25 12 17 -1 33 2 36 6 3 5 -17 7 -45
6 -27 -2 -48 0 -45 5 3 4 12 8 20 8 8 0 14 4 14 10 0 5 -13 7 -29 4 -16 -4
-32 -1 -36 5 -10 16 -14 91 -5 91 5 0 6 9 3 20 -4 14 0 20 11 20 10 0 14 5 11
10 -4 6 -11 7 -17 4 -7 -4 -8 -2 -4 5 4 6 12 8 18 5 7 -5 9 -2 5 8 -3 9 0 21
6 27 16 16 22 14 8 -3z m1 -261 c3 -13 1 -22 -3 -19 -9 5 -13 44 -5 44 2 0 6
-11 8 -25z"/>
<path d="M1776 1358 c-18 -25 -21 -64 -6 -73 26 -16 75 48 63 83 -7 20 -41 14
-57 -10z"/>
<path d="M1629 1315 c-1 -3 -2 -8 -3 -12 -1 -5 -5 -14 -10 -22 -6 -9 -5 -12 1
-8 6 4 10 -8 9 -30 -1 -43 15 -52 43 -24 27 27 29 81 3 81 -10 0 -23 -5 -28
-10 -7 -7 -11 -6 -11 4 0 8 3 13 7 11 3 -2 12 0 20 6 12 7 10 9 -7 9 -13 0
-24 -2 -24 -5z"/>
<path d="M1705 1241 c-17 -33 -15 -48 4 -37 6 4 8 13 5 20 -3 8 1 16 10 18 11
2 13 7 7 17 -7 11 -13 6 -26 -18z"/>
<path d="M1745 1190 c-3 -5 -2 -10 4 -10 5 0 13 5 16 10 3 6 2 10 -4 10 -5 0
-13 -4 -16 -10z"/>
<path d="M1270 2206 c0 -9 5 -16 10 -16 6 0 10 4 10 9 0 6 -4 13 -10 16 -5 3
-10 -1 -10 -9z"/>
<path d="M1460 2178 c0 -9 5 -20 10 -23 13 -8 13 5 0 25 -8 13 -10 13 -10 -2z"/>
<path d="M1362 2144 c10 -10 20 -15 24 -12 3 4 -5 12 -18 18 -22 12 -22 12 -6
-6z"/>
<path d="M1330 2106 c0 -8 5 -18 10 -21 6 -3 10 1 10 9 0 8 -4 18 -10 21 -5 3
-10 -1 -10 -9z"/>
<path d="M1460 2096 c0 -9 5 -16 10 -16 6 0 10 4 10 9 0 6 -4 13 -10 16 -5 3
-10 -1 -10 -9z"/>
<path d="M1240 2070 c0 -5 5 -10 10 -10 6 0 10 5 10 10 0 6 -4 10 -10 10 -5 0
-10 -4 -10 -10z"/>
<path d="M1961 2076 c2 -2 15 -9 29 -15 24 -11 24 -11 6 3 -16 13 -49 24 -35
12z"/>
<path d="M1400 2056 c0 -9 5 -16 10 -16 6 0 10 4 10 9 0 6 -4 13 -10 16 -5 3
-10 -1 -10 -9z"/>
<path d="M2021 2046 c13 -14 121 -76 110 -63 -6 8 -34 26 -63 42 -29 15 -50
25 -47 21z"/>
<path d="M1077 1973 c-11 -10 -8 -20 8 -27 21 -8 45 3 45 20 0 14 -41 20 -53
7z"/>
<path d="M1075 1900 c-9 -15 3 -30 24 -30 21 0 44 23 34 33 -10 11 -51 8 -58
-3z"/>
<path d="M560 1868 c0 -7 5 -20 10 -28 12 -20 33 0 24 23 -7 20 -34 23 -34 5z"/>
<path d="M1016 1873 c-16 -16 -4 -33 25 -33 23 0 30 4 27 17 -3 16 -40 28 -52
16z"/>
<path d="M887 1863 c-16 -15 -5 -24 25 -21 41 4 50 28 11 28 -17 0 -33 -3 -36
-7z"/>
<path d="M500 1829 c0 -18 25 -37 36 -27 8 8 -7 36 -22 42 -9 4 -14 -1 -14
-15z"/>
<path d="M626 1841 c-9 -14 4 -41 20 -41 8 0 14 6 14 14 0 18 -26 40 -34 27z"/>
<path d="M1015 1789 c-4 -6 -2 -15 5 -19 17 -10 52 0 47 14 -5 15 -44 20 -52
5z"/>
<path d="M564 1766 c-6 -26 20 -86 37 -86 7 0 4 11 -6 26 -9 14 -17 39 -17 55
-1 35 -6 37 -14 5z"/>
<path d="M745 1770 c-3 -5 1 -10 9 -10 9 0 16 5 16 10 0 6 -4 10 -9 10 -6 0
-13 -4 -16 -10z"/>
<path d="M500 1751 c0 -24 18 -37 32 -23 8 8 7 16 -2 27 -17 21 -30 19 -30 -4z"/>
<path d="M1077 1757 c-7 -20 1 -27 30 -27 18 0 24 5 21 18 -4 21 -43 28 -51 9z"/>
<path d="M900 1716 c30 -19 77 -48 104 -65 42 -27 52 -30 63 -18 11 11 11 14
1 14 -7 0 -54 24 -105 52 -102 57 -149 69 -63 17z"/>
<path d="M2365 1613 c3 -54 3 -53 30 -53 30 0 33 20 5 45 -11 10 -20 24 -20
32 0 7 -4 13 -9 13 -4 0 -7 -17 -6 -37z"/>
<path d="M440 1560 c19 -13 30 -13 30 0 0 6 -10 10 -22 10 -19 0 -20 -2 -8
-10z"/>
<path d="M675 1319 c-9 -17 -14 -33 -12 -36 3 -2 28 -10 57 -18 49 -13 54 -13
86 8 19 12 34 25 34 28 0 11 -97 49 -124 49 -18 0 -30 -9 -41 -31z"/>
<path d="M515 989 c5 -30 33 -99 40 -99 3 0 -4 21 -14 48 -28 72 -32 79 -26
51z"/>
</g>
</svg>
